<svg xmlns="http://www.w3.org/2000/svg" width="728" height="90" viewBox="0 0 728 90"><defs>
  <linearGradient id="g1" x1="0" y1="0" x2="1" y2="1"><stop offset="0" stop-color="#f472b6"/><stop offset="1" stop-color="#7c3aed"/></linearGradient>
  <linearGradient id="g2" x1="0" y1="0" x2="1" y2="1"><stop offset="0" stop-color="#38bdf8"/><stop offset="1" stop-color="#2563eb"/></linearGradient>
  <linearGradient id="g3" x1="0" y1="0" x2="1" y2="1"><stop offset="0" stop-color="#fb923c"/><stop offset="1" stop-color="#e11d48"/></linearGradient>
</defs>
  <rect width="728" height="90" fill="#0a0a0a"/>
  <clipPath id="clip-16-10"><rect x="20" y="14" width="27" height="62" rx="4"/></clipPath>
  <rect x="16" y="10" width="35" height="70" rx="6" fill="#171717" stroke="#3f3f46" stroke-width="2"/>
  <g clip-path="url(#clip-16-10)">
    <rect x="20" y="-1" width="27" height="29" rx="3" fill="url(#g1)" opacity="0.45"/><rect x="20" y="30" width="27" height="29" rx="3" fill="url(#g2)" opacity="1"/><rect x="20" y="61" width="27" height="29" rx="3" fill="url(#g3)" opacity="0.45"/>
    <polygon points="30.3,40.5 30.3,48.5 38.3,44.5" fill="#fff"/>
  </g>
  <polyline points="54,41 59,36 64,41" fill="none" stroke="#fff" stroke-width="2" stroke-linecap="round" stroke-linejoin="round" opacity="1"/><polyline points="54,49.4 59,44.4 64,49.4" fill="none" stroke="#fff" stroke-width="2" stroke-linecap="round" stroke-linejoin="round" opacity="0.55"/><polyline points="54,57.800000000000004 59,52.800000000000004 64,57.800000000000004" fill="none" stroke="#fff" stroke-width="2" stroke-linecap="round" stroke-linejoin="round" opacity="0.25"/><text x="96" y="40" font-family="'Hiragino Sans', 'Hiragino Kaku Gothic ProN', sans-serif" font-weight="800" font-size="22" fill="#fff" text-anchor="start">サンプル動画を、縦スワイプで次々と</text><text x="96" y="68" font-family="'Hiragino Sans', 'Hiragino Kaku Gothic ProN', sans-serif" font-weight="500" font-size="13" fill="#a3a3a3" text-anchor="start">FANZA の人気作・新作 ／ 登録不要・無料</text><text x="536" y="68" font-family="'Hiragino Sans', 'Hiragino Kaku Gothic ProN', sans-serif" font-weight="700" font-size="12" fill="#737373" text-anchor="end">Short AV</text><rect x="552" y="24" width="160" height="42" rx="21" fill="#2563eb"/>
  <text x="632" y="45" dominant-baseline="central" text-anchor="middle" font-family="'Hiragino Sans', 'Hiragino Kaku Gothic ProN', sans-serif" font-weight="700" font-size="15" fill="#fff">スワイプ画面を開く</text>
</svg>